<svg width="67" height="44" viewBox="0 0 67 44" fill="none" xmlns="http://www.w3.org/2000/svg">
<path d="M17.2708 5.97863V10.0496C17.2708 10.5116 17.2708 10.9254 17.2708 11.2911C17.2772 11.6504 17.2933 11.9327 17.319 12.138C17.3318 12.2792 17.3607 12.3979 17.4056 12.4941C17.4505 12.5904 17.5467 12.6481 17.6943 12.6674C17.7649 12.6802 17.8419 12.6898 17.9253 12.6962C18.0151 12.7027 18.0825 12.7059 18.1274 12.7059C18.1787 12.7059 18.2044 12.7251 18.2044 12.7636C18.2044 12.8149 18.153 12.8406 18.0504 12.8406C17.9156 12.8406 17.7809 12.8374 17.6462 12.831C17.5114 12.831 17.3863 12.8278 17.2708 12.8214C17.1618 12.8214 17.0687 12.8181 16.9917 12.8117C16.9212 12.8117 16.8795 12.8117 16.8666 12.8117C16.8538 12.8117 16.8089 12.8117 16.7319 12.8117C16.6613 12.8181 16.5779 12.8214 16.4817 12.8214C16.3854 12.8278 16.286 12.831 16.1833 12.831C16.0807 12.8374 15.994 12.8406 15.9235 12.8406C15.8208 12.8406 15.7695 12.8149 15.7695 12.7636C15.7695 12.7251 15.7951 12.7059 15.8465 12.7059C15.8914 12.7059 15.9395 12.7027 15.9908 12.6962C16.0422 12.6898 16.0903 12.6802 16.1352 12.6674C16.2314 12.6481 16.2956 12.5904 16.3277 12.4941C16.3662 12.3979 16.395 12.2792 16.4143 12.138C16.44 11.9327 16.4528 11.6504 16.4528 11.2911C16.4592 10.9254 16.4624 10.5116 16.4624 10.0496V5.97863L15.038 5.99787C14.8905 5.99787 14.7622 6.00429 14.6531 6.01712C14.5504 6.02995 14.4606 6.0492 14.3836 6.07487C14.3066 6.09411 14.2425 6.12299 14.1911 6.16148C14.1398 6.19998 14.0949 6.2481 14.0564 6.30584C14.0051 6.38925 13.9666 6.45341 13.9409 6.49833C13.9216 6.53682 13.9056 6.57211 13.8928 6.60419C13.8671 6.66835 13.835 6.70043 13.7965 6.70043C13.7645 6.70043 13.7484 6.67156 13.7484 6.61381C13.7484 6.58815 13.758 6.5272 13.7773 6.43096C13.7965 6.3283 13.819 6.21923 13.8447 6.10374C13.8703 5.98825 13.8928 5.88238 13.912 5.78614C13.9377 5.6899 13.9537 5.63216 13.9601 5.61291C13.973 5.58083 13.9858 5.54233 13.9986 5.49742C14.0179 5.45251 14.0371 5.43005 14.0564 5.43005C14.0885 5.43005 14.1334 5.44609 14.1911 5.47817C14.2553 5.51025 14.3515 5.53271 14.4798 5.54554C14.621 5.55837 14.7686 5.57121 14.9226 5.58404C15.0765 5.59045 15.1824 5.59366 15.2401 5.59366H18.8492C19.0032 5.59366 19.1347 5.59045 19.2438 5.58404C19.3593 5.57121 19.4555 5.55837 19.5325 5.54554C19.6031 5.53271 19.6608 5.52308 19.7057 5.51667C19.7506 5.50384 19.7827 5.49742 19.802 5.49742C19.8276 5.49742 19.8405 5.51025 19.8405 5.53592C19.8469 5.55517 19.8501 5.58083 19.8501 5.61291C19.8501 5.68349 19.8469 5.77331 19.8405 5.88238C19.8405 5.99146 19.8373 6.10053 19.8308 6.2096C19.8308 6.31868 19.8276 6.41813 19.8212 6.50795C19.8212 6.59136 19.8212 6.6459 19.8212 6.67156C19.8212 6.75497 19.7988 6.79667 19.7538 6.79667C19.7282 6.79667 19.7089 6.78705 19.6961 6.7678C19.6897 6.74855 19.6833 6.70364 19.6769 6.63306L19.6672 6.5272C19.6608 6.45662 19.6384 6.38925 19.5999 6.32509C19.5614 6.26093 19.4972 6.2064 19.4074 6.16148C19.324 6.11657 19.2053 6.08128 19.0513 6.05562C18.9037 6.02354 18.7144 6.00429 18.4835 5.99787L17.2708 5.97863ZM22.2357 9.01984V10.4635C22.2357 10.8612 22.2357 11.2141 22.2357 11.5221C22.2421 11.8301 22.2549 12.0675 22.2742 12.2343C22.287 12.3562 22.3094 12.4556 22.3415 12.5326C22.3736 12.6032 22.4538 12.6481 22.5821 12.6674C22.6463 12.6802 22.7169 12.6898 22.7939 12.6962C22.8708 12.7027 22.9286 12.7059 22.9671 12.7059C23.012 12.7059 23.0345 12.7283 23.0345 12.7732C23.0345 12.8181 22.9895 12.8406 22.8997 12.8406C22.7842 12.8406 22.6655 12.8374 22.5436 12.831C22.4217 12.831 22.3094 12.8278 22.2068 12.8214C22.1041 12.8214 22.0175 12.8181 21.9469 12.8117C21.8828 12.8117 21.8475 12.8117 21.8411 12.8117C21.8282 12.8117 21.7897 12.8117 21.7256 12.8117C21.6614 12.8181 21.5844 12.8214 21.4946 12.8214C21.4112 12.8278 21.3246 12.831 21.2348 12.831C21.1449 12.8374 21.0679 12.8406 21.0038 12.8406C20.914 12.8406 20.869 12.8181 20.869 12.7732C20.869 12.7283 20.8915 12.7059 20.9364 12.7059C20.9749 12.7059 21.0166 12.7027 21.0615 12.6962C21.1128 12.6898 21.1578 12.6802 21.1963 12.6674C21.2797 12.6481 21.3342 12.6032 21.3599 12.5326C21.3855 12.4556 21.4048 12.3562 21.4176 12.2343C21.4369 12.0675 21.4497 11.8301 21.4561 11.5221C21.4625 11.2141 21.4657 10.8612 21.4657 10.4635V9.01984C21.4657 8.70545 21.4657 8.44881 21.4657 8.24991C21.4657 8.05101 21.4657 7.89061 21.4657 7.76871C21.4657 7.64038 21.4625 7.54094 21.4561 7.47036C21.4561 7.39337 21.4529 7.32279 21.4465 7.25863C21.4337 7.11748 21.408 7.01482 21.3695 6.95066C21.331 6.88008 21.2668 6.83517 21.177 6.81592C21.1257 6.80309 21.0776 6.79667 21.0326 6.79667C20.9877 6.79026 20.9492 6.78705 20.9172 6.78705C20.8722 6.78705 20.8498 6.76459 20.8498 6.71968C20.8498 6.67477 20.8947 6.65231 20.9845 6.65231C21.0551 6.65231 21.1353 6.65552 21.2251 6.66194C21.3214 6.66194 21.4112 6.66194 21.4946 6.66194C21.5844 6.66194 21.6614 6.66514 21.7256 6.67156C21.7897 6.67156 21.8282 6.67156 21.8411 6.67156C21.8475 6.67156 21.8828 6.67156 21.9469 6.67156C22.0175 6.66514 22.0945 6.66194 22.1779 6.66194C22.2677 6.66194 22.3576 6.66194 22.4474 6.66194C22.5436 6.65552 22.6238 6.65231 22.688 6.65231C22.7778 6.65231 22.8227 6.67477 22.8227 6.71968C22.8227 6.76459 22.8003 6.78705 22.7554 6.78705C22.7233 6.78705 22.6912 6.78705 22.6591 6.78705C22.6335 6.78705 22.595 6.79346 22.5436 6.8063C22.4281 6.83196 22.3511 6.87687 22.3127 6.94103C22.2806 7.00519 22.2581 7.11106 22.2453 7.25863C22.2453 7.32279 22.2421 7.39337 22.2357 7.47036C22.2357 7.54094 22.2357 7.64038 22.2357 7.76871C22.2357 7.89061 22.2357 8.05101 22.2357 8.24991C22.2357 8.44881 22.2357 8.70545 22.2357 9.01984ZM30.9712 6.75818L31.5486 11.7916C31.555 11.8622 31.5647 11.9424 31.5775 12.0322C31.5903 12.1156 31.6128 12.199 31.6449 12.2824C31.6769 12.3594 31.7186 12.4332 31.77 12.5038C31.8213 12.5679 31.8919 12.6128 31.9817 12.6385C32.1036 12.677 32.2127 12.6994 32.3089 12.7059C32.4116 12.7123 32.4854 12.7155 32.5303 12.7155C32.5752 12.7155 32.5976 12.7347 32.5976 12.7732C32.5976 12.7989 32.5816 12.8181 32.5495 12.831C32.5174 12.8438 32.4757 12.8502 32.4244 12.8502C32.3731 12.8502 32.2833 12.8502 32.1549 12.8502C32.033 12.8502 31.8951 12.847 31.7411 12.8406C31.5935 12.8406 31.4492 12.8374 31.308 12.831C31.1669 12.8246 31.0578 12.8181 30.9808 12.8117C30.8781 12.7989 30.8108 12.7861 30.7787 12.7732C30.753 12.7604 30.7402 12.7444 30.7402 12.7251C30.7402 12.693 30.7594 12.6706 30.7979 12.6577C30.8236 12.6513 30.8396 12.6225 30.8461 12.5711C30.8525 12.5134 30.8493 12.446 30.8364 12.369L30.4322 8.21141H30.413L28.3727 12.3883C28.2828 12.5679 28.2187 12.6866 28.1802 12.7444C28.1481 12.7957 28.1128 12.8214 28.0743 12.8214C28.0358 12.8214 27.9973 12.7957 27.9588 12.7444C27.9268 12.693 27.869 12.5936 27.7856 12.446C27.7279 12.3434 27.6541 12.2086 27.5642 12.0418C27.4744 11.875 27.3814 11.6985 27.2851 11.5125C27.1889 11.3264 27.0959 11.1468 27.006 10.9735C26.9162 10.8003 26.8456 10.6591 26.7943 10.5501C26.7302 10.4217 26.6435 10.2485 26.5345 10.0304C26.4318 9.81222 26.3259 9.59087 26.2169 9.36631C26.1078 9.14174 26.0051 8.93322 25.9089 8.74074C25.8191 8.54184 25.7549 8.40069 25.7164 8.31728H25.6779L25.3507 12.0129C25.3443 12.0771 25.3411 12.1445 25.3411 12.215C25.3411 12.2856 25.3411 12.3562 25.3411 12.4268C25.3411 12.5487 25.4085 12.6257 25.5432 12.6577C25.6138 12.677 25.6779 12.6898 25.7357 12.6962C25.7934 12.7027 25.8383 12.7059 25.8704 12.7059C25.9153 12.7059 25.9378 12.7251 25.9378 12.7636C25.9378 12.8149 25.8864 12.8406 25.7838 12.8406C25.7068 12.8406 25.6234 12.8374 25.5336 12.831C25.4502 12.831 25.37 12.8278 25.293 12.8214C25.2224 12.8214 25.1582 12.8181 25.1005 12.8117C25.0492 12.8117 25.0139 12.8117 24.9946 12.8117C24.9754 12.8117 24.9369 12.8117 24.8791 12.8117C24.8278 12.8181 24.7668 12.8214 24.6963 12.8214C24.6257 12.8278 24.5519 12.831 24.4749 12.831C24.4043 12.8374 24.3402 12.8406 24.2824 12.8406C24.1862 12.8406 24.1381 12.8149 24.1381 12.7636C24.1381 12.7251 24.1669 12.7059 24.2247 12.7059C24.2568 12.7059 24.2888 12.7059 24.3209 12.7059C24.3594 12.6994 24.4108 12.6898 24.4749 12.677C24.6161 12.6513 24.6995 12.5743 24.7251 12.446C24.7572 12.3177 24.7829 12.1765 24.8021 12.0226L25.4181 6.68118C25.4309 6.58494 25.463 6.53682 25.5143 6.53682C25.5849 6.53682 25.6426 6.57853 25.6875 6.66194L28.2476 11.7435L30.7113 6.67156C30.7562 6.58173 30.8011 6.53682 30.8461 6.53682C30.9102 6.53682 30.9519 6.61061 30.9712 6.75818ZM34.0974 10.4635V9.01984C34.0974 8.70545 34.0974 8.44881 34.0974 8.24991C34.0974 8.05101 34.0974 7.89061 34.0974 7.76871C34.0974 7.64038 34.0941 7.54094 34.0877 7.47036C34.0877 7.39337 34.0845 7.32279 34.0781 7.25863C34.0653 7.11748 34.0396 7.01161 34.0011 6.94103C33.9626 6.87046 33.8728 6.82554 33.7316 6.8063C33.6996 6.79988 33.6514 6.79667 33.5873 6.79667C33.5295 6.79026 33.4814 6.78705 33.4429 6.78705C33.398 6.78705 33.3755 6.76459 33.3755 6.71968C33.3755 6.67477 33.4205 6.65231 33.5103 6.65231C33.6065 6.65231 33.7092 6.65552 33.8183 6.66194C33.9273 6.66194 34.03 6.66194 34.1262 6.66194C34.2225 6.66194 34.3027 6.66514 34.3668 6.67156C34.4374 6.67156 34.4791 6.67156 34.4919 6.67156C34.4984 6.67156 34.5497 6.67156 34.6459 6.67156C34.7422 6.67156 34.8577 6.67156 34.9924 6.67156C35.1335 6.67156 35.2843 6.67156 35.4447 6.67156C35.6115 6.67156 35.7687 6.67156 35.9163 6.67156C36.0639 6.67156 36.1922 6.67156 36.3013 6.67156C36.4103 6.67156 36.4809 6.67156 36.513 6.67156C36.5964 6.66514 36.6734 6.65873 36.744 6.65231C36.8146 6.63948 36.8659 6.62986 36.898 6.62344C36.9172 6.61702 36.9365 6.61061 36.9557 6.60419C36.975 6.59136 36.9942 6.58494 37.0135 6.58494C37.0391 6.58494 37.0519 6.61061 37.0519 6.66194C37.0519 6.69402 37.0423 6.73893 37.0231 6.79667C37.0102 6.848 36.9974 6.93141 36.9846 7.0469C36.9846 7.06615 36.9814 7.10144 36.975 7.15276C36.975 7.19768 36.9717 7.24901 36.9653 7.30675C36.9589 7.36449 36.9525 7.41903 36.9461 7.47036C36.9461 7.52169 36.9429 7.56018 36.9365 7.58585C36.93 7.6051 36.9204 7.62434 36.9076 7.64359C36.8948 7.66284 36.8787 7.67246 36.8595 7.67246C36.8146 7.67246 36.7921 7.63718 36.7921 7.5666C36.7921 7.53452 36.7889 7.49282 36.7825 7.44149C36.7761 7.38374 36.7632 7.32921 36.744 7.27788C36.7311 7.2458 36.7119 7.21692 36.6862 7.19126C36.667 7.1656 36.6349 7.14314 36.59 7.12389C36.5451 7.10464 36.4873 7.0886 36.4168 7.07577C36.3462 7.05652 36.2531 7.04048 36.1377 7.02765C36.0992 7.02123 36.019 7.01803 35.8971 7.01803C35.7752 7.01161 35.6436 7.0084 35.5025 7.0084C35.3677 7.00199 35.2426 6.99878 35.1271 6.99878C35.0116 6.99878 34.9411 6.99878 34.9154 6.99878C34.8833 6.99878 34.8673 7.02765 34.8673 7.0854V9.30856C34.8673 9.3663 34.8833 9.39518 34.9154 9.39518C34.9411 9.39518 35.0181 9.39518 35.1464 9.39518C35.2811 9.39518 35.4287 9.39518 35.5891 9.39518C35.7495 9.39518 35.9003 9.39518 36.0414 9.39518C36.1826 9.38876 36.2788 9.38235 36.3301 9.37593C36.4328 9.3631 36.5162 9.35347 36.5804 9.34706C36.6445 9.33422 36.6991 9.30535 36.744 9.26044C36.8146 9.18986 36.8563 9.15457 36.8691 9.15457C36.9012 9.15457 36.9172 9.17703 36.9172 9.22194C36.9172 9.24761 36.9076 9.29573 36.8883 9.36631C36.8755 9.43688 36.8627 9.53954 36.8498 9.67428C36.837 9.75768 36.8274 9.86034 36.821 9.98225C36.8146 10.0977 36.8113 10.1715 36.8113 10.2036C36.8113 10.2357 36.8049 10.271 36.7921 10.3095C36.7857 10.3415 36.7664 10.3576 36.7344 10.3576C36.6959 10.3576 36.6766 10.3319 36.6766 10.2806C36.6766 10.2421 36.6734 10.2004 36.667 10.1555C36.667 10.1106 36.6574 10.0624 36.6381 10.0111C36.6253 9.95337 36.59 9.90205 36.5322 9.85713C36.4809 9.81222 36.3718 9.78014 36.205 9.76089C36.1473 9.75448 36.0542 9.74806 35.9259 9.74164C35.7976 9.73523 35.6661 9.73202 35.5313 9.73202C35.3966 9.7256 35.2715 9.7224 35.156 9.7224C35.0405 9.7224 34.9635 9.7224 34.925 9.7224C34.8865 9.7224 34.8673 9.74164 34.8673 9.78014V10.4635C34.8673 10.534 34.8673 10.6399 34.8673 10.781C34.8673 10.9158 34.8673 11.0569 34.8673 11.2045C34.8673 11.3521 34.8673 11.49 34.8673 11.6183C34.8673 11.7402 34.8673 11.8204 34.8673 11.8589C34.8737 11.9937 34.8897 12.106 34.9154 12.1958C34.9411 12.2792 34.9892 12.3466 35.0598 12.3979C35.1368 12.4428 35.2394 12.4749 35.3677 12.4941C35.4961 12.507 35.6661 12.5134 35.8778 12.5134C35.9869 12.5134 36.128 12.5102 36.3013 12.5038C36.4745 12.4973 36.6157 12.4717 36.7247 12.4268C36.8338 12.3754 36.9172 12.3113 36.975 12.2343C37.0391 12.1509 37.084 12.0258 37.1097 11.8589C37.1289 11.7755 37.1578 11.7338 37.1963 11.7338C37.222 11.7338 37.238 11.7467 37.2444 11.7723C37.2508 11.798 37.2541 11.8269 37.2541 11.8589C37.2541 11.8718 37.2508 11.9135 37.2444 11.9841C37.238 12.0482 37.2284 12.1252 37.2156 12.215C37.2027 12.2984 37.1899 12.3819 37.1771 12.4653C37.1642 12.5423 37.1514 12.6032 37.1386 12.6481C37.1257 12.6994 37.1065 12.7412 37.0808 12.7732C37.0616 12.7989 37.0359 12.8181 37.0038 12.831C36.9717 12.8438 36.9268 12.8502 36.8691 12.8502C36.8178 12.8566 36.7504 12.8598 36.667 12.8598C36.3462 12.8598 36.0639 12.8566 35.8201 12.8502C35.5763 12.8438 35.3677 12.8374 35.1945 12.831C35.0148 12.8181 34.8673 12.8117 34.7518 12.8117C34.6427 12.8117 34.5561 12.8117 34.4919 12.8117C34.4791 12.8117 34.4374 12.8117 34.3668 12.8117C34.2962 12.8117 34.216 12.8149 34.1262 12.8214C34.0428 12.8278 33.9562 12.831 33.8664 12.831C33.783 12.8374 33.706 12.8406 33.6354 12.8406C33.5456 12.8406 33.5007 12.8181 33.5007 12.7732C33.5007 12.7283 33.5231 12.7059 33.568 12.7059C33.6065 12.7059 33.6482 12.7027 33.6931 12.6962C33.7445 12.6834 33.7894 12.6738 33.8279 12.6674C33.9113 12.6545 33.9626 12.6096 33.9819 12.5326C34.0075 12.4556 34.03 12.3562 34.0492 12.2343C34.0749 12.0675 34.0877 11.8301 34.0877 11.5221C34.0941 11.2141 34.0974 10.8612 34.0974 10.4635ZM19.0917 24.9753C18.5335 24.9753 18.1004 24.908 17.6865 24.7251C17.5326 24.6577 17.5037 24.6096 17.5037 24.3979C17.5037 23.8686 17.5422 23.2911 17.5518 23.1371C17.5614 22.9928 17.5903 22.8869 17.6673 22.8869C17.7539 22.8869 17.7635 22.9735 17.7635 23.0505C17.7635 23.1756 17.802 23.3777 17.8502 23.5413C18.0619 24.2535 18.6297 24.5134 19.2264 24.5134C20.0926 24.5134 20.516 23.9263 20.516 23.4162C20.516 22.9447 20.3717 22.5019 19.5729 21.8764L19.1302 21.5299C18.0715 20.7022 17.7058 20.0286 17.7058 19.249C17.7058 18.1904 18.5912 17.4301 19.929 17.4301C20.5545 17.4301 20.9587 17.5263 21.209 17.5937C21.2956 17.6129 21.3437 17.6418 21.3437 17.7092C21.3437 17.8343 21.3052 18.1134 21.3052 18.864C21.3052 19.0758 21.2763 19.1528 21.1993 19.1528C21.132 19.1528 21.1031 19.095 21.1031 18.9795C21.1031 18.8929 21.055 18.5946 20.8529 18.3443C20.7085 18.1615 20.4294 17.8728 19.8038 17.8728C19.0917 17.8728 18.6586 18.2866 18.6586 18.864C18.6586 19.3067 18.8799 19.6436 19.6787 20.2499L19.9482 20.452C21.1127 21.3278 21.5266 21.9919 21.5266 22.9062C21.5266 23.4644 21.3148 24.1284 20.6219 24.5808C20.1407 24.8887 19.6017 24.9753 19.0917 24.9753ZM23.4369 22.4635V21.0198C23.4369 19.7783 23.4369 19.5474 23.4273 19.2875C23.4081 19.0084 23.3311 18.9218 23.0616 18.8448C22.9942 18.8255 22.8499 18.8159 22.7248 18.8159C22.6381 18.8159 22.5804 18.787 22.5804 18.7293C22.5804 18.6716 22.6478 18.6523 22.7729 18.6523C23.2156 18.6523 23.7545 18.6716 23.9951 18.6716C24.3416 18.6716 25.0153 18.6523 25.4003 18.6523C26.4589 18.6523 26.8439 18.9988 26.9786 19.1143C27.1615 19.2875 27.4021 19.6532 27.4021 20.0959C27.4021 21.2508 26.4782 22.0785 25.2751 22.0785C25.2366 22.0785 25.0634 22.0785 25.0249 22.0689C24.9768 22.0689 24.9191 22.04 24.9191 21.9822C24.9191 21.9149 25.0153 21.8764 25.1981 21.8764C25.6697 21.8764 26.3338 21.3856 26.3338 20.5483C26.3338 20.2788 26.3049 19.7398 25.8333 19.3356C25.5254 19.0661 25.1789 19.0277 24.9864 19.0277C24.8613 19.0277 24.6977 19.0373 24.6207 19.0661C24.5726 19.0854 24.5533 19.1335 24.5533 19.2201V22.4635C24.5533 23.2141 24.5533 23.8589 24.5918 24.215C24.6207 24.446 24.6688 24.6 24.9191 24.6385C25.0442 24.6577 25.227 24.6674 25.3521 24.6674C25.4484 24.6674 25.4869 24.7155 25.4869 24.754C25.4869 24.8117 25.4195 24.8406 25.3329 24.8406C24.7651 24.8406 24.1684 24.8117 23.947 24.8117C23.7545 24.8117 23.2156 24.8406 22.8787 24.8406C22.7729 24.8406 22.7151 24.8117 22.7151 24.754C22.7151 24.7155 22.744 24.6674 22.8499 24.6674C22.975 24.6674 23.0712 24.6577 23.1482 24.6385C23.3215 24.6 23.3696 24.446 23.3984 24.2054C23.4369 23.8589 23.4369 23.2141 23.4369 22.4635ZM31.0486 22.781H29.0564C29.0083 22.781 28.9987 22.7907 28.9794 22.8388L28.5271 23.9359C28.4405 24.138 28.402 24.3401 28.402 24.4364C28.402 24.5808 28.479 24.6674 28.7388 24.6674H28.864C28.9698 24.6674 28.9891 24.7059 28.9891 24.754C28.9891 24.8214 28.9409 24.8406 28.8543 24.8406C28.5752 24.8406 28.1806 24.8117 27.9112 24.8117C27.8245 24.8117 27.3722 24.8406 26.9295 24.8406C26.8236 24.8406 26.7755 24.8214 26.7755 24.754C26.7755 24.7059 26.8044 24.6674 26.8718 24.6674C26.9488 24.6674 27.045 24.6577 27.122 24.6577C27.507 24.6 27.6513 24.3498 27.8245 23.9359L30.0381 18.787C30.1343 18.5561 30.2017 18.4598 30.2883 18.4598C30.4134 18.4598 30.4519 18.5368 30.5385 18.7197C30.7406 19.172 32.1554 22.5212 32.6943 23.7627C33.0216 24.5038 33.2622 24.6096 33.4161 24.6385C33.5413 24.6577 33.6375 24.6674 33.7337 24.6674C33.8107 24.6674 33.8492 24.6962 33.8492 24.754C33.8492 24.8214 33.8011 24.8406 33.4835 24.8406C33.1852 24.8406 32.5692 24.8406 31.857 24.8214C31.7031 24.8117 31.6068 24.8117 31.6068 24.754C31.6068 24.7059 31.6261 24.677 31.7127 24.6674C31.7704 24.6577 31.8282 24.5808 31.7897 24.4845L31.1352 22.8388C31.116 22.7907 31.0871 22.781 31.0486 22.781ZM29.2297 22.3287H30.8658C30.9043 22.3287 30.9139 22.3095 30.9043 22.2806L30.1055 20.2018C30.0958 20.1729 30.0862 20.1248 30.067 20.1248C30.0381 20.1248 30.0285 20.1729 30.0188 20.2018L29.2008 22.271C29.1815 22.3095 29.2008 22.3287 29.2297 22.3287ZM37.8128 24.9465C36.6579 24.9465 35.6762 24.7059 34.9063 24.0611C34.069 23.3585 33.8477 22.4346 33.8477 21.6454C33.8477 21.0872 34.0305 20.1248 34.8389 19.403C35.4549 18.864 36.2633 18.5368 37.5241 18.5368C38.0534 18.5368 38.371 18.5753 38.7559 18.6234C39.0735 18.6716 39.3526 18.7293 39.6029 18.7582C39.6991 18.7678 39.728 18.8063 39.728 18.8544C39.728 18.9218 39.7087 19.018 39.6895 19.3067C39.6702 19.5762 39.6702 20.0286 39.6606 20.1922C39.651 20.3077 39.6221 20.3943 39.5451 20.3943C39.4777 20.3943 39.4585 20.3269 39.4585 20.221C39.4489 19.9612 39.343 19.6725 39.1313 19.4607C38.8426 19.1816 38.2747 18.9795 37.4952 18.9795C36.7541 18.9795 36.2825 19.1143 35.8976 19.4415C35.272 19.9804 35.118 20.7696 35.118 21.5684C35.118 23.5125 36.6194 24.4364 37.755 24.4364C38.5057 24.4364 38.9195 24.3786 39.2564 24.0033C39.4008 23.8397 39.5162 23.6087 39.5451 23.4547C39.5644 23.3296 39.5836 23.2911 39.651 23.2911C39.7087 23.2911 39.7472 23.3681 39.7472 23.4355C39.7472 23.5317 39.651 24.2439 39.5644 24.523C39.5259 24.6674 39.4874 24.7059 39.343 24.7636C39.0062 24.8983 38.3613 24.9465 37.8128 24.9465ZM41.5573 22.4635V21.0198C41.5573 19.7783 41.5573 19.5474 41.5477 19.2875C41.5284 19.0084 41.4514 18.9218 41.182 18.8448C41.1146 18.8255 40.9702 18.8159 40.8451 18.8159C40.7585 18.8159 40.7008 18.787 40.7008 18.7293C40.7008 18.6716 40.7681 18.6523 40.8932 18.6523C41.3359 18.6523 41.8749 18.6716 42.1155 18.6716C42.385 18.6716 44.2617 18.6812 44.4253 18.6716C44.5793 18.6619 44.714 18.6331 44.7814 18.6234C44.8295 18.6138 44.8776 18.5849 44.9161 18.5849C44.9642 18.5849 44.9738 18.6234 44.9738 18.6619C44.9738 18.7197 44.9257 18.8159 44.9065 19.1913C44.8969 19.2779 44.8776 19.634 44.8584 19.7302C44.8487 19.7687 44.8295 19.8649 44.7621 19.8649C44.7044 19.8649 44.6948 19.8265 44.6948 19.7591C44.6948 19.7013 44.6851 19.557 44.637 19.4607C44.5696 19.3164 44.5023 19.2009 44.0788 19.1624C43.9344 19.1431 42.9239 19.1239 42.7507 19.1239C42.7122 19.1239 42.6929 19.1528 42.6929 19.2009V21.2219C42.6929 21.2701 42.7026 21.3086 42.7507 21.3086C42.9432 21.3086 44.0403 21.3086 44.2328 21.2893C44.4349 21.2701 44.56 21.2508 44.637 21.1642C44.7044 21.1065 44.7332 21.0583 44.7717 21.0583C44.8102 21.0583 44.8391 21.0968 44.8391 21.145C44.8391 21.1931 44.8199 21.3278 44.7717 21.7416C44.7525 21.9053 44.7332 22.2325 44.7332 22.2902C44.7332 22.3576 44.7236 22.4731 44.6466 22.4731C44.5889 22.4731 44.5696 22.4442 44.5696 22.4057C44.56 22.3191 44.56 22.2132 44.5408 22.1074C44.4926 21.9438 44.3868 21.8186 44.0692 21.7898C43.9152 21.7705 42.9528 21.7513 42.7411 21.7513C42.7026 21.7513 42.6929 21.7898 42.6929 21.8379V22.4923C42.6929 22.7714 42.6833 23.4644 42.6929 23.705C42.7122 24.2632 42.972 24.3883 43.8382 24.3883C44.0596 24.3883 44.4157 24.3786 44.637 24.2824C44.8487 24.1862 44.945 24.0129 45.0027 23.6761C45.022 23.5895 45.0412 23.551 45.099 23.551C45.1663 23.551 45.176 23.6568 45.176 23.7435C45.176 23.9263 45.1086 24.4845 45.0605 24.6481C45.0027 24.8598 44.9257 24.8598 44.6081 24.8598C43.9729 24.8598 43.4629 24.8502 43.049 24.831C42.6352 24.8214 42.3176 24.8117 42.0674 24.8117C41.9711 24.8117 41.7883 24.8214 41.5862 24.8214C41.3841 24.831 41.1723 24.8406 40.9991 24.8406C40.8932 24.8406 40.8355 24.8117 40.8355 24.754C40.8355 24.7155 40.8644 24.6674 40.9702 24.6674C41.0953 24.6674 41.1916 24.6577 41.2686 24.6385C41.4418 24.6 41.4899 24.446 41.5188 24.2054C41.5573 23.8589 41.5573 23.2141 41.5573 22.4635ZM49.1601 22.8484C49.1601 21.7224 50.1514 20.8466 50.7288 20.5675C50.3246 20.0286 50.2476 19.634 50.238 19.2009C50.2284 18.4406 50.9021 17.4301 52.5767 17.4301C53.0482 17.4301 53.4813 17.5263 53.7412 17.6322C53.9048 17.6899 53.9048 17.7669 53.9048 17.8824C53.9048 18.2 53.8278 18.9699 53.7989 19.1143C53.7797 19.2586 53.7412 19.2779 53.6834 19.2779C53.6257 19.2779 53.6161 19.2394 53.6161 19.095C53.6161 18.8448 53.5487 18.5368 53.337 18.2866C53.1445 18.0556 52.8076 17.8535 52.2687 17.8535C51.8645 17.8535 51.2389 18.1326 51.2389 18.9507C51.2389 19.8553 52.0666 20.6252 52.8365 21.4818C53.1637 21.8571 54.3475 22.9254 54.5303 23.089C54.7228 22.8195 54.9923 22.194 54.9923 21.6069C54.9923 21.4625 54.9538 21.2893 54.8094 21.1642C54.6843 21.0487 54.4822 21.0198 54.3379 21.0198C54.2801 21.0198 54.2224 21.0006 54.2224 20.9428C54.2224 20.8659 54.2994 20.8466 54.3764 20.8466C54.6073 20.8466 54.9923 20.8562 55.5313 20.914C55.7141 20.9332 55.8585 20.991 55.8585 21.1065C55.8585 21.8475 55.4639 22.7426 54.9153 23.3874C55.5601 23.9167 55.9932 24.1765 56.2531 24.3305C56.561 24.5134 57.0904 24.6674 57.2828 24.6674C57.3695 24.6674 57.4176 24.677 57.4176 24.754C57.4176 24.8117 57.3406 24.8406 57.1289 24.8406H56.3878C55.2906 24.8406 54.9442 24.7347 54.1165 24.0995C53.7989 24.3883 53.1541 24.9753 51.8356 24.9753C49.776 24.9753 49.1601 23.6857 49.1601 22.8484ZM52.1628 24.369C52.9039 24.369 53.5391 23.9841 53.7412 23.7916C53.183 23.3104 52.2591 22.4057 52.0088 22.1362C51.7586 21.8668 51.1427 21.1738 50.9791 20.9332C50.6518 21.1738 50.315 21.6262 50.315 22.3961C50.315 23.5991 51.1619 24.369 52.1628 24.369ZM24.61 34.0496V32.3558C24.61 31.9836 24.61 31.6789 24.61 31.4415C24.61 31.2041 24.61 31.0148 24.61 30.8737C24.61 30.7261 24.6068 30.6106 24.6004 30.5272C24.6004 30.4374 24.5972 30.354 24.5908 30.277C24.5779 30.1102 24.5459 29.985 24.4945 29.9016C24.4432 29.8182 24.3373 29.7605 24.1769 29.7284C24.1384 29.7156 24.0839 29.7092 24.0133 29.7092C23.9492 29.7027 23.8946 29.6995 23.8497 29.6995C23.7984 29.6995 23.7727 29.6803 23.7727 29.6418C23.7727 29.5905 23.8241 29.5648 23.9267 29.5648C24.0358 29.5648 24.1481 29.568 24.2636 29.5744C24.3855 29.5744 24.4977 29.5776 24.6004 29.584C24.7095 29.584 24.7993 29.5872 24.8699 29.5937C24.9469 29.5937 24.995 29.5937 25.0142 29.5937C25.1233 29.5937 25.2965 29.5905 25.5339 29.584C25.7713 29.5712 26.0023 29.5648 26.2269 29.5648C26.5284 29.5648 26.7819 29.5872 26.9872 29.6322C27.1989 29.6771 27.3753 29.7284 27.5165 29.7861C27.6577 29.8439 27.7667 29.9048 27.8437 29.969C27.9207 30.0267 27.9785 30.0749 28.017 30.1134C28.126 30.216 28.2319 30.37 28.3346 30.5753C28.4436 30.7742 28.4982 31.002 28.4982 31.2586C28.4982 31.5987 28.4372 31.9099 28.3153 32.1922C28.1998 32.4745 28.0362 32.7183 27.8245 32.9236C27.6127 33.1225 27.3625 33.2765 27.0738 33.3856C26.7851 33.4946 26.4707 33.5492 26.1306 33.5492C26.105 33.5492 26.0697 33.5492 26.0248 33.5492C25.9863 33.5492 25.9542 33.546 25.9285 33.5395C25.9029 33.5395 25.8772 33.5363 25.8515 33.5299C25.8323 33.5171 25.8227 33.4978 25.8227 33.4722C25.8227 33.4337 25.8387 33.4112 25.8708 33.4048C25.9093 33.392 25.9799 33.3856 26.0825 33.3856C26.3135 33.3856 26.5316 33.3471 26.737 33.2701C26.9423 33.1867 27.1187 33.0744 27.2663 32.9332C27.4138 32.7921 27.5293 32.6285 27.6127 32.4424C27.7026 32.2499 27.7475 32.0414 27.7475 31.8168C27.7475 31.7398 27.7411 31.6436 27.7282 31.5281C27.7218 31.4126 27.6994 31.2875 27.6609 31.1528C27.6288 31.018 27.5775 30.8801 27.5069 30.7389C27.4363 30.5978 27.3369 30.463 27.2085 30.3347C27.0802 30.2064 26.9487 30.1102 26.8139 30.046C26.6856 29.9754 26.5605 29.9273 26.4386 29.9016C26.3231 29.8696 26.2173 29.8535 26.121 29.8535C26.0248 29.8535 25.9478 29.8535 25.89 29.8535C25.8066 29.8535 25.7264 29.8599 25.6494 29.8728C25.5789 29.8792 25.5211 29.892 25.4762 29.9113C25.4249 29.9305 25.3992 29.9915 25.3992 30.0941V34.0496C25.3992 34.5116 25.3992 34.9254 25.3992 35.2911C25.4056 35.6504 25.4217 35.9327 25.4473 36.138C25.4602 36.2792 25.489 36.3979 25.5339 36.4941C25.5789 36.5904 25.6751 36.6481 25.8227 36.6674C25.8932 36.6802 25.9702 36.6898 26.0536 36.6962C26.1435 36.7027 26.2108 36.7059 26.2557 36.7059C26.3071 36.7059 26.3327 36.7251 26.3327 36.7636C26.3327 36.8149 26.2814 36.8406 26.1788 36.8406C26.044 36.8406 25.9093 36.8374 25.7745 36.831C25.6398 36.831 25.5147 36.8278 25.3992 36.8214C25.2901 36.8214 25.1971 36.8181 25.1201 36.8117C25.0495 36.8117 25.0078 36.8117 24.995 36.8117C24.9886 36.8117 24.9501 36.8117 24.8795 36.8117C24.8089 36.8181 24.7255 36.8214 24.6293 36.8214C24.533 36.8278 24.4336 36.831 24.3309 36.831C24.2283 36.8374 24.1417 36.8406 24.0711 36.8406C23.9684 36.8406 23.9171 36.8149 23.9171 36.7636C23.9171 36.7251 23.9428 36.7059 23.9941 36.7059C24.039 36.7059 24.0871 36.7027 24.1384 36.6962C24.1898 36.6898 24.2379 36.6802 24.2828 36.6674C24.379 36.6481 24.4432 36.5904 24.4753 36.4941C24.5138 36.3979 24.5427 36.2792 24.5619 36.138C24.5876 35.9327 24.6004 35.6504 24.6004 35.2911C24.6068 34.9254 24.61 34.5116 24.61 34.0496ZM31.1831 33.0198V34.4827C31.1831 34.7843 31.1831 35.0441 31.1831 35.2623C31.1895 35.474 31.1991 35.6536 31.2119 35.8012C31.2248 35.9424 31.2408 36.0546 31.26 36.138C31.2857 36.2215 31.3178 36.2824 31.3563 36.3209C31.4269 36.3915 31.5488 36.4428 31.722 36.4749C31.8952 36.5006 32.1487 36.5134 32.4823 36.5134C32.7069 36.5134 32.9058 36.5038 33.079 36.4845C33.2587 36.4588 33.3998 36.3851 33.5025 36.2632C33.5538 36.199 33.5955 36.1284 33.6276 36.0514C33.6661 35.968 33.6917 35.8846 33.7046 35.8012C33.7174 35.7306 33.7463 35.6953 33.7912 35.6953C33.8297 35.6953 33.8489 35.737 33.8489 35.8204C33.8489 35.8397 33.8457 35.8846 33.8393 35.9552C33.8329 36.0193 33.8233 36.0931 33.8104 36.1765C33.7976 36.2535 33.7848 36.3369 33.7719 36.4268C33.7591 36.5102 33.7431 36.5808 33.7238 36.6385C33.711 36.6898 33.6949 36.7315 33.6757 36.7636C33.6629 36.7893 33.6372 36.8085 33.5987 36.8214C33.5666 36.8342 33.5185 36.8438 33.4543 36.8502C33.3902 36.8566 33.3004 36.8598 33.1849 36.8598C32.5946 36.8598 32.1038 36.8502 31.7124 36.831C31.5199 36.8246 31.3499 36.8181 31.2023 36.8117C31.0547 36.8117 30.9168 36.8117 30.7885 36.8117C30.7692 36.8117 30.7275 36.8117 30.6634 36.8117C30.5992 36.8117 30.5254 36.8149 30.442 36.8214C30.3522 36.8278 30.2656 36.831 30.1822 36.831C30.0987 36.8374 30.0217 36.8406 29.9512 36.8406C29.8613 36.8406 29.8164 36.8181 29.8164 36.7732C29.8164 36.7283 29.8389 36.7059 29.8838 36.7059C29.9223 36.7059 29.964 36.7027 30.0089 36.6962C30.0602 36.6898 30.1052 36.6802 30.1437 36.6674C30.2271 36.6481 30.2784 36.6032 30.2976 36.5326C30.3233 36.4556 30.3458 36.3562 30.365 36.2343C30.3907 36.0675 30.4035 35.8301 30.4035 35.5221C30.4099 35.2141 30.4131 34.8612 30.4131 34.4635V33.0198C30.4131 32.7055 30.4131 32.4488 30.4131 32.2499C30.4131 32.051 30.4131 31.8906 30.4131 31.7687C30.4131 31.6404 30.4099 31.5409 30.4035 31.4704C30.4035 31.3934 30.4003 31.3228 30.3939 31.2586C30.381 31.1175 30.3554 31.0116 30.3169 30.941C30.2784 30.8705 30.1886 30.8255 30.0474 30.8063C30.0153 30.7999 29.9672 30.7967 29.9031 30.7967C29.8453 30.7903 29.7972 30.787 29.7587 30.787C29.7138 30.787 29.6913 30.7646 29.6913 30.7197C29.6913 30.6748 29.7362 30.6523 29.8261 30.6523C29.9223 30.6523 30.025 30.6555 30.134 30.6619C30.2431 30.6619 30.3426 30.6619 30.4324 30.6619C30.5286 30.6619 30.6088 30.6651 30.673 30.6716C30.7371 30.6716 30.7756 30.6716 30.7885 30.6716C30.7949 30.6716 30.8366 30.6716 30.9136 30.6716C30.9906 30.6651 31.0772 30.6619 31.1734 30.6619C31.2697 30.6619 31.3691 30.6619 31.4718 30.6619C31.5744 30.6555 31.6578 30.6523 31.722 30.6523C31.8118 30.6523 31.8567 30.6748 31.8567 30.7197C31.8567 30.7582 31.8343 30.7774 31.7894 30.7774C31.7573 30.7774 31.7156 30.7806 31.6643 30.787C31.6129 30.787 31.5616 30.7903 31.5103 30.7967C31.382 30.8223 31.2985 30.8705 31.26 30.941C31.228 31.0052 31.2055 31.1111 31.1927 31.2586C31.1927 31.3228 31.1895 31.3934 31.1831 31.4704C31.1831 31.5409 31.1831 31.6404 31.1831 31.7687C31.1831 31.8906 31.1831 32.051 31.1831 32.2499C31.1831 32.4488 31.1831 32.7055 31.1831 33.0198ZM34.9455 35.9359L36.9377 30.8159C36.9891 30.6812 37.0276 30.5946 37.0532 30.5561C37.0789 30.5176 37.1078 30.4983 37.1398 30.4983C37.1848 30.4983 37.2168 30.5272 37.2361 30.5849C37.2617 30.6363 37.297 30.7068 37.3419 30.7967C37.3676 30.8544 37.4221 30.9892 37.5056 31.2009C37.5954 31.4126 37.7012 31.6693 37.8232 31.9708C37.9451 32.266 38.0766 32.5932 38.2177 32.9525C38.3653 33.3054 38.5097 33.655 38.6508 34.0015C38.792 34.348 38.9267 34.6784 39.055 34.9928C39.1834 35.3007 39.2892 35.5574 39.3726 35.7627C39.4496 35.9488 39.5202 36.0963 39.5844 36.2054C39.6549 36.3145 39.7191 36.4011 39.7768 36.4653C39.841 36.5294 39.8987 36.5743 39.9501 36.6C40.0014 36.6257 40.0495 36.6449 40.0944 36.6577C40.1586 36.677 40.2196 36.6898 40.2773 36.6962C40.335 36.7027 40.3864 36.7059 40.4313 36.7059C40.4569 36.7059 40.4794 36.7123 40.4986 36.7251C40.5243 36.7315 40.5371 36.7476 40.5371 36.7732C40.5371 36.7989 40.5179 36.8149 40.4794 36.8214C40.4409 36.8342 40.396 36.8406 40.3447 36.8406C40.3126 36.8406 40.2516 36.8406 40.1618 36.8406C40.0784 36.8406 39.9725 36.8406 39.8442 36.8406C39.7223 36.8406 39.5876 36.8374 39.44 36.831C39.2988 36.831 39.1545 36.8278 39.0069 36.8214C38.9235 36.8149 38.8529 36.8117 38.7952 36.8117C38.7374 36.8053 38.7086 36.7893 38.7086 36.7636C38.7086 36.7444 38.7118 36.7347 38.7182 36.7347C38.731 36.7283 38.7471 36.7187 38.7663 36.7059C38.792 36.693 38.8176 36.6706 38.8433 36.6385C38.8754 36.6064 38.8754 36.5551 38.8433 36.4845L38.083 34.6078C38.0638 34.5757 38.0381 34.5597 38.006 34.5597H36.0523C36.0138 34.5597 35.985 34.5821 35.9657 34.6271L35.4845 35.9359C35.4011 36.1541 35.3594 36.3369 35.3594 36.4845C35.3594 36.5679 35.3883 36.6257 35.446 36.6577C35.5102 36.6898 35.5775 36.7059 35.6481 36.7059H35.7251C35.7828 36.7059 35.8117 36.7283 35.8117 36.7732C35.8117 36.8181 35.77 36.8406 35.6866 36.8406C35.6353 36.8406 35.5711 36.8374 35.4941 36.831C35.4171 36.831 35.3401 36.8278 35.2631 36.8214C35.1862 36.8214 35.1156 36.8181 35.0514 36.8117C34.9937 36.8117 34.952 36.8117 34.9263 36.8117C34.9071 36.8117 34.8653 36.8117 34.8012 36.8117C34.7434 36.8181 34.6729 36.8214 34.5895 36.8214C34.5125 36.8278 34.4258 36.831 34.3296 36.831C34.2398 36.8374 34.1532 36.8406 34.0698 36.8406C33.9607 36.8406 33.9061 36.8181 33.9061 36.7732C33.9061 36.7283 33.9318 36.7059 33.9831 36.7059C34.0152 36.7059 34.0569 36.7059 34.1083 36.7059C34.1596 36.6994 34.2013 36.693 34.2334 36.6866C34.4258 36.661 34.5702 36.5808 34.6665 36.446C34.7691 36.3113 34.8621 36.1413 34.9455 35.9359ZM36.1678 34.2228H37.8809C37.9066 34.2228 37.9162 34.2036 37.9098 34.1651L37.0725 31.9227C37.0211 31.8008 36.973 31.8008 36.9281 31.9227L36.1389 34.1651C36.1261 34.2036 36.1357 34.2228 36.1678 34.2228ZM41.9136 31.8649L42.0099 35.7242C42.0163 35.891 42.0259 36.0322 42.0387 36.1477C42.0516 36.2567 42.0708 36.3498 42.0965 36.4268C42.1221 36.4973 42.1542 36.5519 42.1927 36.5904C42.2312 36.6225 42.2793 36.6449 42.3371 36.6577C42.4141 36.677 42.4943 36.6898 42.5777 36.6962C42.6611 36.7027 42.722 36.7059 42.7605 36.7059C42.8054 36.7059 42.8279 36.7283 42.8279 36.7732C42.8279 36.8181 42.7766 36.8406 42.6739 36.8406C42.4301 36.8406 42.228 36.8342 42.0676 36.8214C41.9136 36.8149 41.8174 36.8117 41.7789 36.8117C41.7404 36.8117 41.6409 36.8149 41.4805 36.8214C41.3265 36.8342 41.1533 36.8406 40.9608 36.8406C40.871 36.8406 40.8261 36.8181 40.8261 36.7732C40.8261 36.7283 40.8485 36.7059 40.8935 36.7059C40.9255 36.7059 40.9737 36.7027 41.0378 36.6962C41.1084 36.6898 41.1758 36.677 41.2399 36.6577C41.2913 36.6449 41.333 36.6192 41.365 36.5808C41.3971 36.5423 41.4196 36.4845 41.4324 36.4075C41.4517 36.3305 41.4645 36.2311 41.4709 36.1092C41.4773 35.9808 41.4805 35.8237 41.4805 35.6376V30.9507C41.4805 30.7838 41.4902 30.6748 41.5094 30.6234C41.5351 30.5657 41.5639 30.5368 41.596 30.5368C41.6473 30.5368 41.7019 30.5689 41.7596 30.6331C41.8238 30.6908 41.8783 30.7421 41.9232 30.787C41.9553 30.8191 42.0516 30.9218 42.212 31.095C42.3724 31.2618 42.5745 31.4736 42.8183 31.7302C43.0621 31.9869 43.338 32.2756 43.646 32.5964C43.9539 32.9172 44.2715 33.2444 44.5987 33.578C44.8105 33.7962 45.019 34.0175 45.2243 34.2421C45.436 34.4602 45.6317 34.6656 45.8114 34.858C45.9974 35.0505 46.1578 35.2205 46.2926 35.3681C46.4337 35.5157 46.5364 35.6216 46.6005 35.6857L46.5139 31.5858C46.5075 31.3228 46.4851 31.1367 46.4466 31.0277C46.4081 30.9186 46.3247 30.8512 46.1963 30.8255C46.1193 30.8127 46.0391 30.8031 45.9557 30.7967C45.8723 30.7903 45.8146 30.787 45.7825 30.787C45.7504 30.787 45.7312 30.7774 45.7248 30.7582C45.7183 30.7389 45.7151 30.7229 45.7151 30.7101C45.7151 30.6716 45.7697 30.6523 45.8787 30.6523C46.0712 30.6523 46.2541 30.6555 46.4273 30.6619C46.6005 30.6684 46.7128 30.6716 46.7642 30.6716C46.8155 30.6716 46.9053 30.6684 47.0336 30.6619C47.162 30.6555 47.3127 30.6523 47.486 30.6523C47.5886 30.6523 47.6399 30.6716 47.6399 30.7101C47.6399 30.7229 47.6303 30.7389 47.6111 30.7582C47.5982 30.7774 47.5758 30.787 47.5437 30.787C47.5245 30.787 47.4988 30.787 47.4667 30.787C47.4346 30.787 47.3929 30.7935 47.3416 30.8063C47.271 30.8191 47.2165 30.8416 47.178 30.8737C47.1395 30.9057 47.1106 30.9507 47.0914 31.0084C47.0721 31.0597 47.0593 31.1271 47.0529 31.2105C47.0465 31.2939 47.0433 31.3966 47.0433 31.5185L47.024 36.3113C47.024 36.446 47.0208 36.5519 47.0144 36.6289C47.0144 36.7059 47.0112 36.7668 47.0048 36.8117C47.0048 36.8502 46.9983 36.8727 46.9855 36.8791C46.9791 36.8919 46.9695 36.8983 46.9566 36.8983C46.9374 36.8983 46.9149 36.8919 46.8893 36.8791C46.8636 36.8663 46.8251 36.8438 46.7738 36.8117C46.7289 36.7732 46.6679 36.7219 46.5909 36.6577C46.5203 36.5936 46.4273 36.507 46.3118 36.3979C46.2926 36.3786 46.206 36.2984 46.052 36.1573C45.9044 36.0097 45.7248 35.8301 45.513 35.6183C45.3013 35.4002 45.0703 35.166 44.8201 34.9158C44.5699 34.6591 44.3325 34.4153 44.1079 34.1844C43.8641 33.9277 43.6235 33.6775 43.3861 33.4337C43.1551 33.1834 42.9402 32.9557 42.7413 32.7504C42.5424 32.5386 42.3692 32.3558 42.2216 32.2018C42.0804 32.0478 41.9778 31.9355 41.9136 31.8649ZM49.4827 34.4635V33.0198C49.4827 32.7055 49.4827 32.4488 49.4827 32.2499C49.4827 32.051 49.4827 31.8906 49.4827 31.7687C49.4827 31.6404 49.4795 31.5409 49.4731 31.4704C49.4731 31.3934 49.4699 31.3228 49.4635 31.2586C49.4507 31.1175 49.425 31.0116 49.3865 30.941C49.348 30.8705 49.2582 30.8255 49.117 30.8063C49.0849 30.7999 49.0368 30.7967 48.9727 30.7967C48.9149 30.7903 48.8668 30.787 48.8283 30.787C48.7834 30.787 48.7609 30.7646 48.7609 30.7197C48.7609 30.6748 48.8058 30.6523 48.8957 30.6523C48.9919 30.6523 49.0946 30.6555 49.2036 30.6619C49.3127 30.6619 49.4154 30.6619 49.5116 30.6619C49.6078 30.6619 49.688 30.6651 49.7522 30.6716C49.8228 30.6716 49.8645 30.6716 49.8773 30.6716C49.8837 30.6716 49.9351 30.6716 50.0313 30.6716C50.1275 30.6716 50.243 30.6716 50.3778 30.6716C50.5189 30.6716 50.6697 30.6716 50.8301 30.6716C50.9969 30.6716 51.1541 30.6716 51.3017 30.6716C51.4493 30.6716 51.5776 30.6716 51.6867 30.6716C51.7957 30.6716 51.8663 30.6716 51.8984 30.6716C51.9818 30.6651 52.0588 30.6587 52.1294 30.6523C52.1999 30.6395 52.2513 30.6299 52.2833 30.6234C52.3026 30.617 52.3218 30.6106 52.3411 30.6042C52.3603 30.5914 52.3796 30.5849 52.3988 30.5849C52.4245 30.5849 52.4373 30.6106 52.4373 30.6619C52.4373 30.694 52.4277 30.7389 52.4085 30.7967C52.3956 30.848 52.3828 30.9314 52.37 31.0469C52.37 31.0661 52.3668 31.1014 52.3603 31.1528C52.3603 31.1977 52.3571 31.249 52.3507 31.3067C52.3443 31.3645 52.3379 31.419 52.3315 31.4704C52.3315 31.5217 52.3283 31.5602 52.3218 31.5858C52.3154 31.6051 52.3058 31.6243 52.293 31.6436C52.2801 31.6628 52.2641 31.6725 52.2448 31.6725C52.1999 31.6725 52.1775 31.6372 52.1775 31.5666C52.1775 31.5345 52.1743 31.4928 52.1679 31.4415C52.1614 31.3837 52.1486 31.3292 52.1294 31.2779C52.1165 31.2458 52.0973 31.2169 52.0716 31.1913C52.0524 31.1656 52.0203 31.1431 51.9754 31.1239C51.9305 31.1046 51.8727 31.0886 51.8021 31.0758C51.7316 31.0565 51.6385 31.0405 51.523 31.0277C51.4845 31.0212 51.4043 31.018 51.2824 31.018C51.1605 31.0116 51.029 31.0084 50.8879 31.0084C50.7531 31.002 50.628 30.9988 50.5125 30.9988C50.397 30.9988 50.3264 30.9988 50.3008 30.9988C50.2687 30.9988 50.2527 31.0277 50.2527 31.0854V33.3086C50.2527 33.3663 50.2687 33.3952 50.3008 33.3952C50.3264 33.3952 50.4034 33.3952 50.5318 33.3952C50.6665 33.3952 50.8141 33.3952 50.9745 33.3952C51.1349 33.3952 51.2856 33.3952 51.4268 33.3952C51.568 33.3888 51.6642 33.3823 51.7155 33.3759C51.8182 33.3631 51.9016 33.3535 51.9658 33.3471C52.0299 33.3342 52.0844 33.3054 52.1294 33.2604C52.1999 33.1899 52.2416 33.1546 52.2545 33.1546C52.2866 33.1546 52.3026 33.177 52.3026 33.2219C52.3026 33.2476 52.293 33.2957 52.2737 33.3663C52.2609 33.4369 52.2481 33.5395 52.2352 33.6743C52.2224 33.7577 52.2128 33.8603 52.2064 33.9822C52.1999 34.0977 52.1967 34.1715 52.1967 34.2036C52.1967 34.2357 52.1903 34.271 52.1775 34.3095C52.1711 34.3415 52.1518 34.3576 52.1197 34.3576C52.0812 34.3576 52.062 34.3319 52.062 34.2806C52.062 34.2421 52.0588 34.2004 52.0524 34.1555C52.0524 34.1106 52.0427 34.0624 52.0235 34.0111C52.0107 33.9534 51.9754 33.902 51.9176 33.8571C51.8663 33.8122 51.7572 33.7801 51.5904 33.7609C51.5327 33.7545 51.4396 33.7481 51.3113 33.7416C51.183 33.7352 51.0515 33.732 50.9167 33.732C50.782 33.7256 50.6569 33.7224 50.5414 33.7224C50.4259 33.7224 50.3489 33.7224 50.3104 33.7224C50.2719 33.7224 50.2527 33.7416 50.2527 33.7801V34.4635C50.2527 34.534 50.2527 34.6399 50.2527 34.781C50.2527 34.9158 50.2527 35.0569 50.2527 35.2045C50.2527 35.3521 50.2527 35.49 50.2527 35.6183C50.2527 35.7402 50.2527 35.8204 50.2527 35.8589C50.2591 35.9937 50.2751 36.106 50.3008 36.1958C50.3264 36.2792 50.3746 36.3466 50.4451 36.3979C50.5221 36.4428 50.6248 36.4749 50.7531 36.4941C50.8814 36.507 51.0515 36.5134 51.2632 36.5134C51.3723 36.5134 51.5134 36.5102 51.6867 36.5038C51.8599 36.4973 52.001 36.4717 52.1101 36.4268C52.2192 36.3754 52.3026 36.3113 52.3603 36.2343C52.4245 36.1509 52.4694 36.0258 52.4951 35.8589C52.5143 35.7755 52.5432 35.7338 52.5817 35.7338C52.6074 35.7338 52.6234 35.7467 52.6298 35.7723C52.6362 35.798 52.6394 35.8269 52.6394 35.8589C52.6394 35.8718 52.6362 35.9135 52.6298 35.9841C52.6234 36.0482 52.6138 36.1252 52.6009 36.215C52.5881 36.2984 52.5753 36.3819 52.5624 36.4653C52.5496 36.5423 52.5368 36.6032 52.5239 36.6481C52.5111 36.6994 52.4919 36.7412 52.4662 36.7732C52.447 36.7989 52.4213 36.8181 52.3892 36.831C52.3571 36.8438 52.3122 36.8502 52.2545 36.8502C52.2031 36.8566 52.1358 36.8598 52.0524 36.8598C51.7316 36.8598 51.4493 36.8566 51.2054 36.8502C50.9616 36.8438 50.7531 36.8374 50.5799 36.831C50.4002 36.8181 50.2527 36.8117 50.1372 36.8117C50.0281 36.8117 49.9415 36.8117 49.8773 36.8117C49.8645 36.8117 49.8228 36.8117 49.7522 36.8117C49.6816 36.8117 49.6014 36.8149 49.5116 36.8214C49.4282 36.8278 49.3416 36.831 49.2518 36.831C49.1683 36.8374 49.0914 36.8406 49.0208 36.8406C48.931 36.8406 48.886 36.8181 48.886 36.7732C48.886 36.7283 48.9085 36.7059 48.9534 36.7059C48.9919 36.7059 49.0336 36.7027 49.0785 36.6962C49.1299 36.6834 49.1748 36.6738 49.2133 36.6674C49.2967 36.6545 49.348 36.6096 49.3672 36.5326C49.3929 36.4556 49.4154 36.3562 49.4346 36.2343C49.4603 36.0675 49.4731 35.8301 49.4731 35.5221C49.4795 35.2141 49.4827 34.8612 49.4827 34.4635ZM56.6313 31.0277V34.4635C56.6313 34.8612 56.6313 35.2141 56.6313 35.5221C56.6377 35.8301 56.6506 36.0675 56.6698 36.2343C56.6827 36.3562 56.7083 36.4556 56.7468 36.5326C56.7853 36.6032 56.8687 36.6481 56.997 36.6674C57.0548 36.6802 57.1222 36.6898 57.1992 36.6962C57.2826 36.7027 57.3435 36.7059 57.382 36.7059C57.4269 36.7059 57.4494 36.7283 57.4494 36.7732C57.4494 36.8181 57.4045 36.8406 57.3146 36.8406C57.1992 36.8406 57.0805 36.8374 56.9585 36.831C56.8431 36.831 56.734 36.8278 56.6313 36.8214C56.5351 36.8214 56.4517 36.8181 56.3811 36.8117C56.3169 36.8117 56.2784 36.8117 56.2656 36.8117C56.2528 36.8117 56.2111 36.8117 56.1405 36.8117C56.0763 36.8181 55.9961 36.8214 55.8999 36.8214C55.8101 36.8278 55.717 36.831 55.6208 36.831C55.531 36.8374 55.454 36.8406 55.3898 36.8406C55.3 36.8406 55.2551 36.8181 55.2551 36.7732C55.2551 36.7347 55.2775 36.7155 55.3225 36.7155C55.361 36.7155 55.4027 36.7123 55.4476 36.7059C55.4925 36.6994 55.5342 36.6898 55.5727 36.677C55.6625 36.6577 55.7235 36.6096 55.7555 36.5326C55.7876 36.4556 55.8101 36.3562 55.8229 36.2343C55.8422 36.0675 55.8518 35.8301 55.8518 35.5221C55.8582 35.2141 55.8614 34.8612 55.8614 34.4635V31.0277L54.6391 31.0469C54.3697 31.0533 54.174 31.0758 54.0521 31.1143C53.9366 31.1463 53.8468 31.2105 53.7826 31.3067C53.7313 31.3773 53.6992 31.4319 53.6864 31.4704C53.6735 31.5024 53.6607 31.5345 53.6479 31.5666C53.635 31.6179 53.6062 31.6436 53.5612 31.6436C53.5484 31.6436 53.5356 31.6404 53.5227 31.634C53.5099 31.6211 53.5035 31.6019 53.5035 31.5762C53.5035 31.557 53.5099 31.5024 53.5227 31.4126C53.542 31.3228 53.5612 31.2298 53.5805 31.1335C53.6062 31.0309 53.6286 30.9378 53.6479 30.8544C53.6671 30.7646 53.6799 30.7101 53.6864 30.6908C53.6928 30.6651 53.7056 30.6331 53.7249 30.5946C53.7441 30.5561 53.7601 30.5368 53.773 30.5368C53.8051 30.5368 53.8468 30.5497 53.8981 30.5753C53.9494 30.601 54.0328 30.6202 54.1483 30.6331C54.2702 30.6459 54.3985 30.6555 54.5333 30.6619C54.668 30.6684 54.761 30.6716 54.8124 30.6716H58.0076C58.1487 30.6716 58.2674 30.6684 58.3637 30.6619C58.4599 30.6555 58.5433 30.6459 58.6139 30.6331C58.6781 30.6202 58.7294 30.6106 58.7679 30.6042C58.8064 30.5978 58.8352 30.5946 58.8545 30.5946C58.8802 30.5946 58.893 30.6266 58.893 30.6908C58.893 30.755 58.8898 30.8352 58.8834 30.9314C58.8834 31.0277 58.8802 31.1239 58.8737 31.2201C58.8737 31.31 58.8705 31.3934 58.8641 31.4704C58.8641 31.5474 58.8641 31.5987 58.8641 31.6243C58.8641 31.6949 58.8385 31.7302 58.7871 31.7302C58.7679 31.7302 58.7518 31.7206 58.739 31.7013C58.7326 31.6821 58.7262 31.6436 58.7198 31.5858L58.7101 31.4992C58.7037 31.4351 58.6845 31.3773 58.6524 31.326C58.6203 31.2747 58.5658 31.2298 58.4888 31.1913C58.4182 31.1463 58.3155 31.1143 58.1808 31.095C58.0525 31.0694 57.8889 31.0533 57.69 31.0469L56.6313 31.0277ZM61.0739 36.9465C60.875 36.9465 60.6633 36.9304 60.4387 36.8983C60.2141 36.8663 60.0153 36.8085 59.842 36.7251C59.7843 36.693 59.749 36.661 59.7362 36.6289C59.7233 36.5968 59.7169 36.5262 59.7169 36.4171C59.7169 36.2118 59.7233 36.0354 59.7362 35.8878C59.749 35.7338 59.7586 35.6216 59.765 35.551C59.765 35.4611 59.7875 35.4162 59.8324 35.4162C59.8837 35.4162 59.9094 35.4483 59.9094 35.5125C59.9094 35.5446 59.9094 35.5895 59.9094 35.6472C59.9158 35.6985 59.9254 35.7531 59.9383 35.8108C59.9703 35.9584 60.0313 36.0835 60.1211 36.1862C60.2109 36.2888 60.3168 36.3722 60.4387 36.4364C60.567 36.5006 60.7018 36.5487 60.8429 36.5808C60.9905 36.6064 61.1349 36.6192 61.276 36.6192C61.6995 36.6192 62.0171 36.5166 62.2288 36.3113C62.4405 36.0995 62.5464 35.8397 62.5464 35.5317C62.5464 35.3842 62.5239 35.2526 62.479 35.1371C62.4405 35.0216 62.3764 34.9126 62.2865 34.8099C62.2031 34.7008 62.0941 34.5918 61.9593 34.4827C61.8246 34.3736 61.6642 34.2485 61.4781 34.1074L61.0931 33.8186C60.6376 33.4786 60.32 33.1738 60.1404 32.9043C59.9671 32.6285 59.8805 32.3494 59.8805 32.0671C59.8805 31.8297 59.9254 31.6147 60.0153 31.4222C60.1051 31.2298 60.2334 31.0694 60.4002 30.941C60.567 30.8063 60.7627 30.7036 60.9873 30.6331C61.2183 30.5625 61.4749 30.5272 61.7572 30.5272C61.924 30.5272 62.0844 30.5368 62.2384 30.5561C62.3988 30.5753 62.5303 30.5978 62.633 30.6234C62.7164 30.6427 62.7774 30.6555 62.8159 30.6619C62.8608 30.6619 62.8993 30.6619 62.9314 30.6619C62.9891 30.6619 63.018 30.6812 63.018 30.7197C63.018 30.7389 63.0116 30.8191 62.9987 30.9603C62.9859 31.095 62.9795 31.3035 62.9795 31.5858C62.9795 31.7078 62.957 31.7687 62.9121 31.7687C62.88 31.7687 62.8608 31.7591 62.8544 31.7398C62.8479 31.7206 62.8415 31.6949 62.8351 31.6628C62.8287 31.6115 62.8127 31.5441 62.787 31.4607C62.7613 31.3709 62.7357 31.3035 62.71 31.2586C62.6972 31.233 62.6683 31.1977 62.6234 31.1528C62.5785 31.1079 62.5111 31.0629 62.4213 31.018C62.3379 30.9731 62.2288 30.9346 62.0941 30.9025C61.9657 30.8705 61.8053 30.8544 61.6128 30.8544C61.3049 30.8544 61.0386 30.9314 60.8141 31.0854C60.5959 31.233 60.4868 31.4511 60.4868 31.7398C60.4868 31.8682 60.5029 31.9869 60.535 32.0959C60.5734 32.205 60.6344 32.3141 60.7178 32.4231C60.8076 32.5258 60.9199 32.6349 61.0547 32.7504C61.1958 32.8594 61.3722 32.9845 61.584 33.1257L61.8246 33.2893C62.0812 33.4625 62.2962 33.6326 62.4694 33.7994C62.649 33.9598 62.7934 34.1202 62.9025 34.2806C63.0116 34.4346 63.0885 34.595 63.1335 34.7618C63.1848 34.9222 63.2104 35.089 63.2104 35.2623C63.2104 35.5061 63.1527 35.7499 63.0372 35.9937C62.9281 36.2375 62.7228 36.4588 62.4213 36.6577C62.2416 36.7732 62.0299 36.8502 61.7861 36.8887C61.5423 36.9272 61.3049 36.9465 61.0739 36.9465Z" fill="#835200"/>
<path d="M48.6379 0.713711L48.8395 3.49143L51.1096 1.87804L49.2879 3.98468L52.0339 4.44904L49.2562 4.65057L50.8696 6.92066L48.763 5.09902L48.2986 7.84505L48.0971 5.06734L45.827 6.68072L47.6486 4.57408L44.9026 4.10972L47.6803 3.90819L46.0669 1.6381L48.1736 3.45974L48.6379 0.713711Z" fill="#835200"/>
<g filter="url(#filter0_d_226_146)">
<path d="M22.5693 38.8848C31.4878 42.1608 41.0947 42.8726 49.0947 41.3136C41.4082 43.069 32.1792 42.7136 23.4482 39.963C23.0684 39.8433 22.6901 39.7172 22.3125 39.588C22.4309 39.3708 22.519 39.1348 22.5693 38.8848ZM3.47168 9.52059C10.4535 0.21135 28.4386 -2.67127 44.5293 2.65926C44.4314 2.912 44.3583 3.17696 44.3125 3.45126C44.2198 3.42177 44.127 3.39134 44.0342 3.36239C28.4195 -1.50565 11.3617 1.22944 4.76758 10.0216C-1.73359 18.6903 4.20542 30.2219 18.0283 36.9581C17.866 37.1935 17.7448 37.4582 17.6699 37.7423C2.91455 30.9791 -3.44615 18.7452 3.47168 9.52059ZM51.9922 5.83309C58.8303 9.47612 63.5384 14.3473 65.5234 19.4122C63.3017 14.5525 58.4826 9.90137 51.6465 6.43563C51.7783 6.24594 51.8938 6.04445 51.9922 5.83309Z" fill="#835200"/>
</g>
<circle cx="20.1009" cy="38.3851" r="1.79817" fill="#835200"/>
<defs>
<filter id="filter0_d_226_146" x="-0.000421226" y="0" width="66.2001" height="43.7412" filterUnits="userSpaceOnUse" color-interpolation-filters="sRGB">
<feFlood flood-opacity="0" result="BackgroundImageFix"/>
<feColorMatrix in="SourceAlpha" type="matrix" values="0 0 0 0 0 0 0 0 0 0 0 0 0 0 0 0 0 0 127 0" result="hardAlpha"/>
<feOffset dy="0.676202"/>
<feGaussianBlur stdDeviation="0.338101"/>
<feComposite in2="hardAlpha" operator="out"/>
<feColorMatrix type="matrix" values="0 0 0 0 0 0 0 0 0 0 0 0 0 0 0 0 0 0 0.25 0"/>
<feBlend mode="normal" in2="BackgroundImageFix" result="effect1_dropShadow_226_146"/>
<feBlend mode="normal" in="SourceGraphic" in2="effect1_dropShadow_226_146" result="shape"/>
</filter>
</defs>
</svg>
